<?xml version="1.0" encoding="UTF-8" standalone="no" ?>
<!DOCTYPE svg PUBLIC "-//W3C//DTD SVG 1.1//EN" "http://www.w3.org/Graphics/SVG/1.1/DTD/svg11.dtd">
<svg xmlns="http://www.w3.org/2000/svg" xmlns:xlink="http://www.w3.org/1999/xlink" version="1.1" width="1280" height="1024" viewBox="0 0 1280 1024" xml:space="preserve">
<desc>Created with Fabric.js 4.4.0</desc>
<defs>
</defs>
<g transform="matrix(1 0 0 1 640 512)" id="background-logo"  >
<rect style="stroke: none; stroke-width: 0; stroke-dasharray: none; stroke-linecap: butt; stroke-dashoffset: 0; stroke-linejoin: miter; stroke-miterlimit: 10; fill: rgb(255,255,255); fill-opacity: 0; fill-rule: nonzero; opacity: 1;"  paint-order="stroke"  x="-640" y="-512" rx="0" ry="0" width="1280" height="1024" />
</g>
<g transform="matrix(1.9211538461538462 0 0 1.9211538461538462 646.8394998076922 421.11011548076925)" id="logo-logo"  >
<g style=""  paint-order="stroke"   >
		<g transform="matrix(0.06 0 0 -0.06 62.43990000000008 -100.15994999999998)"  >
<linearGradient id="SVGID_529384" gradientUnits="userSpaceOnUse" gradientTransform="matrix(1 0 0 1 4313.48 4815.699999999999)"  x1="0" y1="0" x2="0" y2="866">
<stop offset="0%" style="stop-color:rgb(23,234,217);stop-opacity: 1"/>
<stop offset="100%" style="stop-color:rgb(96,120,234);stop-opacity: 1"/>
</linearGradient>
<path style="stroke: none; stroke-width: 1; stroke-dasharray: none; stroke-linecap: butt; stroke-dashoffset: 0; stroke-linejoin: miter; stroke-miterlimit: 10; fill: url(#SVGID_529384); fill-rule: nonzero; opacity: 1;"  paint-order="stroke"  transform=" translate(-4694.28, -5248.594999999999)" d="M 4537.32 5681.49 L 4313.48 4815.7 L 5075.08 4837.36 z" stroke-linecap="round" />
</g>
		<g transform="matrix(0.06 0 0 -0.06 115.96990000000005 -0.5099500000000035)"  >
<linearGradient id="SVGID_529385" gradientUnits="userSpaceOnUse" gradientTransform="matrix(1 0 0 1 5100.23 3266.9700000000003)"  x1="0" y1="0" x2="0" y2="844">
<stop offset="0%" style="stop-color:rgb(23,234,217);stop-opacity: 1"/>
<stop offset="100%" style="stop-color:rgb(96,120,234);stop-opacity: 1"/>
</linearGradient>
<path style="stroke: none; stroke-width: 1; stroke-dasharray: none; stroke-linecap: butt; stroke-dashoffset: 0; stroke-linejoin: miter; stroke-miterlimit: 10; fill: url(#SVGID_529385); fill-rule: nonzero; opacity: 1;"  paint-order="stroke"  transform=" translate(-5532.16, -3688.78)" d="M 5100.23 3675.32 L 5964.089999999999 3266.9700000000003 L 5426.659999999999 4110.59 z" stroke-linecap="round" />
</g>
		<g transform="matrix(0.06 0 0 -0.06 -5.7900999999999385 30.82004999999998)"  >
<linearGradient id="SVGID_529386" gradientUnits="userSpaceOnUse" gradientTransform="matrix(1 0 0 1 1328.4099999999999 1609.83)"  x1="0" y1="0" x2="0" y2="3177">
<stop offset="0%" style="stop-color:rgb(23,234,217);stop-opacity: 1"/>
<stop offset="100%" style="stop-color:rgb(96,120,234);stop-opacity: 1"/>
</linearGradient>
<path style="stroke: none; stroke-width: 1; stroke-dasharray: none; stroke-linecap: butt; stroke-dashoffset: 0; stroke-linejoin: miter; stroke-miterlimit: 10; fill: url(#SVGID_529386); fill-rule: nonzero; opacity: 1;"  paint-order="stroke"  transform=" translate(-3596.67, -3198.39)" d="M 3985.41 3417.93 C 3977.6499999999996 3412.5899999999997 3652.83 2037.4299999999998 3580.14 1747.0499999999997 C 4382.0599999999995 2790.3099999999995 5063 3743.6899999999996 5864.93 4786.95 C 4880.64 4757.44 3997.9800000000005 4765.5 2963.2000000000003 4766.25 C 3321.0200000000004 4593.74 3959.59 4223.96 3959.59 4223.96 L 1566.06 3504.44 L 1328.41 3068.83 L 3745.11 3983.32 L 1955.76 3049.08 L 1354.7 1609.83 C 3556.54 3530.2 4780.01 4284.79 4780.01 4284.79 L 4231.27 4490 L 5285.6900000000005 4541.49 C 5285.6900000000005 4541.49 4273.330000000001 3669.06 3985.4100000000008 3417.93" stroke-linecap="round" />
</g>
		<g transform="matrix(0.06 0 0 -0.06 27.609900000000096 47.29004999999995)"  >
<linearGradient id="SVGID_529388" gradientUnits="userSpaceOnUse" gradientTransform="matrix(1 0 0 1 3237.5900000000006 1770.5900000000001)"  x1="0" y1="0" x2="0" y2="2340">
<stop offset="0%" style="stop-color:rgb(23,234,217);stop-opacity: 1"/>
<stop offset="100%" style="stop-color:rgb(96,120,234);stop-opacity: 1"/>
</linearGradient>
<path style="stroke: none; stroke-width: 1; stroke-dasharray: none; stroke-linecap: butt; stroke-dashoffset: 0; stroke-linejoin: miter; stroke-miterlimit: 10; fill: url(#SVGID_529388); fill-rule: nonzero; opacity: 1;"  paint-order="stroke"  transform=" translate(-4149.1900000000005, -2940.59)" d="M 3514.16 2773.53 L 5060.79 4110.59 L 3237.59 1770.5900000000001 z" stroke-linecap="round" />
</g>
</g>
</g>
<g transform="matrix(1.9211538461538462 0 0 1.9211538461538462 639.7973783052885 787.2863956021222)" id="text-logo-path"  >
<linearGradient id="SVGID_49_529380" gradientUnits="userSpaceOnUse" gradientTransform="matrix(1 0 0 1 2.069999999999993 -50.91)"  x1="0" y1="0" x2="0" y2="81">
<stop offset="0%" style="stop-color:rgb(91,36,122);stop-opacity: 1"/>
<stop offset="100%" style="stop-color:rgb(27,206,223);stop-opacity: 1"/>
</linearGradient>
<path style="stroke: none; stroke-width: 1; stroke-dasharray: none; stroke-linecap: butt; stroke-dashoffset: 0; stroke-linejoin: miter; stroke-miterlimit: 4; fill: url(#SVGID_49_529380); fill-rule: nonzero; opacity: 1;"  paint-order="stroke"  transform=" translate(-208.09, 25.174999999999997)" d="M 2.07 -12.09 L 2.07 -12.09 L 2.07 -14.98 L 7.35 -14.98 L 7.35 -11.81 Q 7.35 -4.61 13.25 -4.61 Q 19.16 -4.61 19.16 -11.81 L 19.16 -11.81 Q 19.16 -14.06 18.23 -16.03 Q 17.3 -18 15.82 -19.51 Q 14.34 -21.02 12.53 -22.48 Q 10.72 -23.94 8.93 -25.51 Q 7.14 -27.07 5.66 -28.81 Q 4.18 -30.55 3.25 -32.99 Q 2.32 -35.44 2.32 -38.32 L 2.32 -38.32 Q 2.32 -44.3 5.12 -47.6 Q 7.91 -50.91 13.46 -50.91 L 13.46 -50.91 Q 19.05 -50.91 21.87 -47.57 Q 24.68 -44.23 24.68 -38.32 L 24.68 -38.32 L 24.68 -36.95 L 19.37 -36.95 L 19.37 -38.6 Q 19.37 -45.81 13.61 -45.81 Q 7.84 -45.81 7.84 -38.67 L 7.84 -38.67 Q 7.84 -36.39 8.77 -34.4 Q 9.7 -32.41 11.2 -30.9 Q 12.69 -29.39 14.5 -27.93 Q 16.31 -26.47 18.12 -24.91 Q 19.93 -23.34 21.43 -21.6 Q 22.92 -19.86 23.85 -17.42 Q 24.79 -14.98 24.79 -12.09 L 24.79 -12.09 Q 24.79 -6.22 21.9 -2.87 Q 19.02 0.49 13.39 0.49 Q 7.77 0.49 4.92 -2.85 Q 2.07 -6.19 2.07 -12.09 Z M 36.91 -45.28 L 27.63 -45.28 L 27.63 -50.41 L 51.75 -50.41 L 51.75 -45.28 L 42.43 -45.28 L 42.43 0 L 36.91 0 L 36.91 -45.28 Z M 56.53 0 L 51.36 0 L 61 -50.41 L 69.15 -50.41 L 78.79 0 L 73.2 0 L 71.23 -10.16 L 58.5 -10.16 L 56.53 0 Z M 64.76 -44.05 L 59.2 -14.98 L 70.45 -14.98 L 64.76 -44.05 Z M 88.8 0 L 83.18 0 L 83.18 -50.41 L 94.39 -50.41 Q 100.23 -50.41 102.94 -47.51 Q 105.64 -44.61 105.64 -38.88 L 105.64 -38.88 L 105.64 -34.77 Q 105.64 -26.37 99.39 -24.4 L 99.39 -24.4 Q 102.73 -23.41 104.22 -20.76 Q 105.71 -18.11 105.71 -13.89 L 105.71 -13.89 L 105.71 -6.05 Q 105.71 -1.86 106.73 0 L 106.73 0 L 101.04 0 Q 100.09 -2.18 100.09 -6.12 L 100.09 -6.12 L 100.09 -14.03 Q 100.09 -18.14 98.26 -19.83 Q 96.43 -21.52 92.74 -21.52 L 92.74 -21.52 L 88.8 -21.52 L 88.8 0 Z M 88.8 -45.28 L 88.8 -26.65 L 92.95 -26.65 Q 96.54 -26.65 98.31 -28.14 Q 100.09 -29.64 100.09 -33.54 L 100.09 -33.54 L 100.09 -38.39 Q 100.09 -41.87 98.7 -43.58 Q 97.31 -45.28 94.25 -45.28 L 94.25 -45.28 L 88.8 -45.28 Z M 123.33 0 L 111.52 0 L 111.52 -50.41 L 123.33 -50.41 Q 129.06 -50.41 131.91 -47.13 Q 134.75 -43.84 134.75 -37.86 L 134.75 -37.86 L 134.75 -12.45 Q 134.75 -6.5 131.91 -3.25 Q 129.06 0 123.33 0 L 123.33 0 Z M 117.14 -45.28 L 117.14 -5.1 L 123.26 -5.1 Q 129.23 -5.1 129.23 -12.23 L 129.23 -12.23 L 129.23 -38.14 Q 129.23 -45.28 123.19 -45.28 L 123.19 -45.28 L 117.14 -45.28 Z M 139.82 -12.16 L 139.82 -12.16 L 139.82 -50.41 L 145.34 -50.41 L 145.34 -11.88 Q 145.34 -4.61 151.24 -4.61 L 151.24 -4.61 Q 157.08 -4.61 157.08 -11.88 L 157.08 -11.88 L 157.08 -50.41 L 162.35 -50.41 L 162.35 -12.16 Q 162.35 -6.22 159.52 -2.83 Q 156.69 0.56 151.03 0.56 L 151.03 0.56 Q 145.44 0.56 142.63 -2.83 Q 139.82 -6.22 139.82 -12.16 Z M 167.06 -12.09 L 167.06 -12.09 L 167.06 -14.98 L 172.34 -14.98 L 172.34 -11.81 Q 172.34 -4.61 178.24 -4.61 Q 184.15 -4.61 184.15 -11.81 L 184.15 -11.81 Q 184.15 -14.06 183.22 -16.03 Q 182.29 -18 180.81 -19.51 Q 179.33 -21.02 177.52 -22.48 Q 175.71 -23.94 173.92 -25.51 Q 172.13 -27.07 170.65 -28.81 Q 169.17 -30.55 168.24 -32.99 Q 167.31 -35.44 167.31 -38.32 L 167.31 -38.32 Q 167.31 -44.3 170.1 -47.6 Q 172.9 -50.91 178.45 -50.91 L 178.45 -50.91 Q 184.04 -50.91 186.86 -47.57 Q 189.67 -44.23 189.67 -38.32 L 189.67 -38.32 L 189.67 -36.95 L 184.36 -36.95 L 184.36 -38.6 Q 184.36 -45.81 178.59 -45.81 Q 172.83 -45.81 172.83 -38.67 L 172.83 -38.67 Q 172.83 -36.39 173.76 -34.4 Q 174.69 -32.41 176.19 -30.9 Q 177.68 -29.39 179.49 -27.93 Q 181.3 -26.47 183.11 -24.91 Q 184.92 -23.34 186.42 -21.6 Q 187.91 -19.86 188.84 -17.42 Q 189.77 -14.98 189.77 -12.09 L 189.77 -12.09 Q 189.77 -6.22 186.89 -2.87 Q 184.01 0.49 178.38 0.49 Q 172.76 0.49 169.91 -2.85 Q 167.06 -6.19 167.06 -12.09 Z M 201.9 -45.28 L 192.62 -45.28 L 192.62 -50.41 L 216.74 -50.41 L 216.74 -45.28 L 207.42 -45.28 L 207.42 0 L 201.9 0 L 201.9 -45.28 Z M 231.75 -22.68 L 218 -22.68 L 218 -27.7 L 231.75 -27.7 L 231.75 -22.68 Z M 236.85 -12.16 L 236.85 -12.16 L 236.85 -38.21 Q 236.85 -44.12 239.68 -47.51 Q 242.51 -50.91 248.13 -50.91 L 248.13 -50.91 Q 253.79 -50.91 256.66 -47.51 Q 259.52 -44.12 259.52 -38.21 L 259.52 -38.21 L 259.52 -33.68 L 254.18 -33.68 L 254.18 -38.53 Q 254.18 -45.81 248.27 -45.81 L 248.27 -45.81 Q 245.32 -45.81 243.84 -43.91 Q 242.37 -42.01 242.37 -38.53 L 242.37 -38.53 L 242.37 -11.88 Q 242.37 -8.4 243.84 -6.5 Q 245.32 -4.61 248.27 -4.61 L 248.27 -4.61 Q 254.18 -4.61 254.18 -11.88 L 254.18 -11.88 L 254.18 -18.42 L 259.52 -18.42 L 259.52 -12.16 Q 259.52 -6.26 256.66 -2.88 Q 253.79 0.49 248.13 0.49 L 248.13 0.49 Q 242.51 0.49 239.68 -2.88 Q 236.85 -6.26 236.85 -12.16 Z M 285.36 0 L 264.62 0 L 264.62 -50.41 L 285.36 -50.41 L 285.36 -45.28 L 270.25 -45.28 L 270.25 -28.09 L 282.55 -28.09 L 282.55 -23.03 L 270.25 -23.03 L 270.25 -5.1 L 285.36 -5.1 L 285.36 0 Z M 310.54 0 L 290.53 0 L 290.53 -50.41 L 296.16 -50.41 L 296.16 -5.1 L 310.54 -5.1 L 310.54 0 Z M 335.53 0 L 314.79 0 L 314.79 -50.41 L 335.53 -50.41 L 335.53 -45.28 L 320.41 -45.28 L 320.41 -28.09 L 332.72 -28.09 L 332.72 -23.03 L 320.41 -23.03 L 320.41 -5.1 L 335.53 -5.1 L 335.53 0 Z M 339.89 -12.09 L 339.89 -12.09 L 339.89 -14.98 L 345.16 -14.98 L 345.16 -11.81 Q 345.16 -4.61 351.07 -4.61 Q 356.98 -4.61 356.98 -11.81 L 356.98 -11.81 Q 356.98 -14.06 356.04 -16.03 Q 355.11 -18 353.64 -19.51 Q 352.16 -21.02 350.35 -22.48 Q 348.54 -23.94 346.75 -25.51 Q 344.95 -27.07 343.48 -28.81 Q 342 -30.55 341.07 -32.99 Q 340.14 -35.44 340.14 -38.32 L 340.14 -38.32 Q 340.14 -44.3 342.93 -47.6 Q 345.73 -50.91 351.28 -50.91 L 351.28 -50.91 Q 356.87 -50.91 359.68 -47.57 Q 362.5 -44.23 362.5 -38.32 L 362.5 -38.32 L 362.5 -36.95 L 357.19 -36.95 L 357.19 -38.6 Q 357.19 -45.81 351.42 -45.81 Q 345.66 -45.81 345.66 -38.67 L 345.66 -38.67 Q 345.66 -36.39 346.59 -34.4 Q 347.52 -32.41 349.01 -30.9 Q 350.51 -29.39 352.32 -27.93 Q 354.13 -26.47 355.94 -24.91 Q 357.75 -23.34 359.24 -21.6 Q 360.74 -19.86 361.67 -17.42 Q 362.6 -14.98 362.6 -12.09 L 362.6 -12.09 Q 362.6 -6.22 359.72 -2.87 Q 356.84 0.49 351.21 0.49 Q 345.59 0.49 342.74 -2.85 Q 339.89 -6.19 339.89 -12.09 Z M 374.73 -45.28 L 365.45 -45.28 L 365.45 -50.41 L 389.57 -50.41 L 389.57 -45.28 L 380.25 -45.28 L 380.25 0 L 374.73 0 L 374.73 -45.28 Z M 414.11 0 L 393.36 0 L 393.36 -50.41 L 414.11 -50.41 L 414.11 -45.28 L 398.99 -45.28 L 398.99 -28.09 L 411.29 -28.09 L 411.29 -23.03 L 398.99 -23.03 L 398.99 -5.1 L 414.11 -5.1 L 414.11 0 Z" stroke-linecap="round" />
</g>
</svg>